# xmcd
#
# Track frame offsets: 
#        150
#        13554
#        50217
#        70003
#        80091
#        87145
#        101675
#        123060
#        133092
#        144746
#        173009
#        196250
#        212226
#        238700
#        257402
#
# Disc length: 3601 seconds
#
# Revision: 2
# Processed by: cddbd v1.5.2PL0 Copyright (c) Steve Scherf et al.
# Submitted via: ExactAudioCopy v1.3
#
DISCID=d00e0f0f
DTITLE=The Royal Norwegian Navy Band, Brion - Sousa - Music for Wind B
DTITLE=and Vol. 10
DYEAR=2011
DGENRE=Classical
TTITLE0=The Salvation Army March [1930]
TTITLE1=Jazz America [1925]
TTITLE2=The Free Lance March [1906]
TTITLE3=The Quilting Party March [1889]
TTITLE4=People Who live in Glass Houses - I. The Champagnes
TTITLE5=People Who live in Glass Houses - II. The Rhine Wines
TTITLE6=People Who live in Glass Houses - III. The Whiskies-Scotch, Ir
TTITLE6=ish, Bourbon and Rye
TTITLE7=People Who live in Glass Houses - IV. Convention of the Cordia
TTITLE7=ls...
TTITLE8=When the Boys Come Sailing Home! [1918]
TTITLE9=Myrrha Gavotte [1876]
TTITLE10=Vautour Overture [1886]
TTITLE11=The Beau Ideal March [1893]
TTITLE12=Humoresque on Kern's look... [1922]
TTITLE13=Anchor and Star [1918]
TTITLE14=Who's Who in the Navy Blue [1920]
EXTD=
EXTT0=
EXTT1=
EXTT2=
EXTT3=
EXTT4=
EXTT5=
EXTT6=
EXTT7=
EXTT8=
EXTT9=
EXTT10=
EXTT11=
EXTT12=
EXTT13=
EXTT14=
PLAYORDER=
